<?xml version="1.0" standalone="no"?>
<svg xmlns="http://www.w3.org/2000/svg" viewBox="0 0 275.112 25.375" width="275.112" height="25.375"><g fill="#3f79c9" color="#3f79c9" transform="translate(0, 0) scale(0.29)"><svg width="100.0" height="87.5" x="0.0" y="0.0" viewBox="0 0 100 87.5"><path style="" d="M50,12.5C50,12.5,37.5,0,0,0v75c37.891,0,50,12.5,50,12.5S62.109,75,100,75V0C62.5,0,50,12.5,50,12.5  z M12.5,12.5c15.888,1.33,25.635,5.005,31.25,7.983v50.342c-5.615-2.966-15.362-6.641-31.25-7.983V12.5z M87.5,62.842  c-15.894,1.343-25.641,5.018-31.25,7.983V20.483c5.609-2.979,15.356-6.653,31.25-7.983V62.842z" fill="currentColor"></path></svg></g><line x1="41" y1="1" x2="41" y2="24.375" stroke="#120a66" stroke-linecap="round"></line><path fill="#120a66" fill-rule="nonzero" d="M11.26 15.96L11.26 18.94L5.21 18.94Q2.33 18.94 1.16 17.94Q0 16.94 0 14.42L0 14.42L0 1.85L11.26 1.85L11.26 4.82L3.34 4.82L3.34 8.83L8.88 8.83L8.64 11.81L3.34 11.81L3.34 14.18Q3.34 15.19 3.79 15.58Q4.25 15.96 5.45 15.96L5.45 15.96L11.26 15.96ZM24.24 0.89L24.24 18.94L22.15 18.94L21.19 17.28L17.86 19.08Q15.07 19.08 14.11 17.06L14.11 17.06Q13.63 16.08 13.45 14.94Q13.27 13.80 13.27 12.56Q13.27 11.33 13.30 10.74Q13.32 10.15 13.42 9.37Q13.51 8.59 13.69 8.06Q13.87 7.54 14.21 6.97Q14.54 6.41 15.02 6.07L15.02 6.07Q16.10 5.33 17.83 5.33L17.83 5.33L21.12 5.33L21.12 0.89L24.24 0.89ZM18.74 15.79L21.12 14.57L21.12 8.14L18.74 8.14Q17.42 8.14 16.91 9.14Q16.39 10.15 16.39 12.16Q16.39 14.16 16.88 14.98Q17.38 15.79 18.74 15.79L18.74 15.79ZM29.33 0Q30.46 0 30.79 0.35Q31.13 0.70 31.13 1.81Q31.13 2.93 30.78 3.28Q30.43 3.62 29.32 3.62Q28.20 3.62 27.85 3.26Q27.50 2.90 27.50 1.80Q27.50 0.70 27.85 0.35Q28.20 0 29.33 0ZM30.86 5.74L30.86 18.94L27.74 18.94L27.74 5.74L30.86 5.74ZM40.20 16.30L40.20 18.94L38.26 18.94Q36.48 18.94 35.56 17.88Q34.63 16.82 34.63 15.36L34.63 15.36L34.63 8.16L33.31 8.16L33.31 5.78L34.63 5.78L34.63 3.10L37.75 3.10L37.75 5.78L39.96 5.78L39.96 8.16L37.75 8.16L37.75 15.17Q37.75 16.30 38.83 16.30L38.83 16.30L40.20 16.30ZM50.21 12.74L50.21 12.74L50.21 11.50Q50.21 9.72 49.69 8.78Q49.18 7.85 47.54 7.85L47.54 7.85Q44.90 7.85 44.90 11.40L44.90 11.40L44.90 12.65Q44.90 16.46 47.54 16.46L47.54 16.46Q49.25 16.46 49.78 15.19L49.78 15.19Q50.21 14.18 50.21 12.74ZM53.33 12.02L53.33 12.02Q53.33 16.46 51.65 17.98L51.65 17.98Q50.23 19.27 47.54 19.27L47.54 19.27Q44.11 19.27 42.91 17.26L42.91 17.26Q41.78 15.41 41.78 12.02L41.78 12.02Q41.78 8.86 42.91 7.06L42.91 7.06Q44.16 5.04 47.46 5.04Q50.76 5.04 52.04 6.80Q53.33 8.57 53.33 12.02ZM63.10 5.28L63.10 5.28L62.23 8.35Q61.87 8.21 61.42 8.21L61.42 8.21Q60.22 8.21 58.46 9.24L58.46 9.24L58.46 18.94L55.34 18.94L55.34 5.23L57.67 5.23L58.39 6.43L61.70 5.06Q61.94 5.04 62.35 5.04Q62.76 5.04 63.10 5.28ZM66.77 0Q67.90 0 68.23 0.35Q68.57 0.70 68.57 1.81Q68.57 2.93 68.22 3.28Q67.87 3.62 66.76 3.62Q65.64 3.62 65.29 3.26Q64.94 2.90 64.94 1.80Q64.94 0.70 65.29 0.35Q65.64 0 66.77 0ZM68.30 5.74L68.30 18.94L65.18 18.94L65.18 5.74L68.30 5.74ZM81.22 5.14L81.22 18.94L79.13 18.94L78.17 17.28L74.83 19.08Q72.05 19.08 71.09 17.06L71.09 17.06Q70.61 16.08 70.43 14.94Q70.25 13.80 70.25 12.56Q70.25 11.33 70.27 10.74Q70.30 10.15 70.39 9.37Q70.49 8.59 70.67 8.06Q70.85 7.54 71.18 6.97Q71.52 6.41 72 6.07L72 6.07Q73.08 5.33 74.81 5.33L74.81 5.33L78.10 5.33L81.22 5.14ZM75.72 15.79L78.10 14.57L78.10 8.14L75.72 8.14Q74.40 8.14 73.88 9.14Q73.37 10.15 73.37 12.16Q73.37 14.16 73.86 14.98Q74.35 15.79 75.72 15.79L75.72 15.79ZM87.60 0.89L87.60 18.94L84.48 18.96L84.48 0.89L87.60 0.89ZM108.29 13.90L108.29 13.90Q108.29 16.32 106.51 17.70Q104.74 19.08 101.98 19.08L101.98 19.08Q99.79 19.08 97.75 17.88L97.75 17.88Q96.74 17.26 96.10 16.12Q95.45 14.98 95.45 13.51L95.45 13.51L98.47 13.37Q98.47 14.66 99.58 15.38Q100.68 16.10 102.02 16.10L102.02 16.10Q105.02 16.10 105.02 13.99L105.02 13.99Q105.02 12.26 102.98 11.95L102.98 11.95L100.20 11.66Q98.11 11.35 96.89 10.18Q95.66 9 95.66 6.79Q95.66 4.58 97.42 3.14Q99.17 1.70 101.84 1.70Q104.52 1.70 106.15 3.06Q107.78 4.42 107.78 6.55L107.78 6.55L104.81 6.70Q104.40 4.61 102 4.61L102 4.61Q100.54 4.61 99.71 5.23Q98.88 5.86 98.88 6.71Q98.88 7.56 99.48 8.05Q100.08 8.54 100.97 8.66L100.97 8.66L103.70 8.95Q108.29 9.58 108.29 13.90ZM120.98 12.82L120.98 12.82L112.99 12.82Q112.99 14.69 113.58 15.55Q114.17 16.42 115.94 16.42L115.94 16.42Q117.10 16.42 117.65 15.68Q118.20 14.95 118.20 14.28L118.20 14.28L121.01 14.28Q121.01 16.85 119.63 18.05Q118.25 19.25 115.98 19.25Q113.71 19.25 112.46 18.60L112.46 18.60Q109.90 17.28 109.90 11.59L109.90 11.59Q109.90 8.21 111.36 6.64Q112.82 5.06 115.82 5.06L115.82 5.06Q121.03 5.06 121.03 10.85L121.03 10.85Q121.03 11.47 120.98 12.82ZM113.06 10.68L113.06 10.68L118.20 10.68Q118.20 9.10 117.60 8.38Q117 7.66 115.76 7.66Q114.53 7.66 113.80 8.39Q113.06 9.12 113.06 10.68ZM134.50 9.74L134.50 18.94L131.38 18.94L131.38 10.18Q131.38 9 130.90 8.57Q130.42 8.14 129.55 8.14L129.55 8.14L126.74 9.31L126.74 18.94L123.62 18.94L123.62 5.23L125.95 5.23L126.67 6.86L130.51 5.09Q132.12 5.09 133.31 6.28Q134.50 7.46 134.50 9.74L134.50 9.74ZM147.02 15.14L147.02 15.14L147.02 15.50Q146.88 17.30 145.50 18.22Q144.12 19.13 142.06 19.13L142.06 19.13Q139.01 19.13 137.78 18.02L137.78 18.02Q136.66 17.02 136.66 15.05L136.66 15.05L136.66 14.76L139.49 14.76Q139.49 15.86 140.06 16.27Q140.64 16.68 142.06 16.68L142.06 16.68Q143.98 16.68 143.98 15.29L143.98 15.29Q143.98 14.14 143.30 13.75L143.30 13.75Q142.99 13.56 142.51 13.46L142.51 13.46L140.09 13.06Q136.92 12.55 136.92 9.10L136.92 9.10Q136.92 7.18 138.32 6.11Q139.73 5.04 141.89 5.04L141.89 5.04Q146.81 5.04 146.81 9.29L146.81 9.29L146.81 9.60L144.10 9.60Q144.05 8.47 143.50 8.06Q142.94 7.66 141.95 7.66Q140.95 7.66 140.45 8.05Q139.94 8.45 139.94 8.93L139.94 8.93Q139.94 10.30 141.05 10.49L141.05 10.49L143.95 11.02Q147.02 11.59 147.02 15.14ZM159.07 5.14L159.07 18.94L156.98 18.94L156.02 17.28L152.69 19.08Q149.90 19.08 148.94 17.06L148.94 17.06Q148.46 16.08 148.28 14.94Q148.10 13.80 148.10 12.56Q148.10 11.33 148.13 10.74Q148.15 10.15 148.25 9.37Q148.34 8.59 148.52 8.06Q148.70 7.54 149.04 6.97Q149.38 6.41 149.86 6.07L149.86 6.07Q150.94 5.33 152.66 5.33L152.66 5.33L155.95 5.33L159.07 5.14ZM153.58 15.79L155.95 14.57L155.95 8.14L153.58 8.14Q152.26 8.14 151.74 9.14Q151.22 10.15 151.22 12.16Q151.22 14.16 151.72 14.98Q152.21 15.79 153.58 15.79L153.58 15.79ZM169.46 13.92L169.46 13.92L172.30 13.90Q172.27 14.09 172.25 14.59Q172.22 15.10 172.21 15.28Q172.20 15.46 172.15 15.84Q172.10 16.22 172.04 16.40Q171.98 16.58 171.89 16.87L171.89 16.87Q171.46 18.12 169.54 18.84L169.54 18.84Q168.31 19.27 166.98 19.27Q165.65 19.27 164.57 18.84Q163.49 18.41 162.86 17.74L162.86 17.74Q161.45 16.25 161.45 12.16Q161.45 8.06 162.86 6.58L162.86 6.58Q163.49 5.90 164.57 5.47Q165.65 5.04 166.97 5.04L166.97 5.04Q169.56 5.04 170.90 6.34Q172.25 7.63 172.25 9.94L172.25 9.94L169.42 9.94Q169.42 8.88 168.89 8.36Q168.36 7.85 166.93 7.85Q165.50 7.85 165.04 8.74Q164.57 9.62 164.57 11.40L164.57 11.40L164.57 12.65Q164.57 15.50 165.67 16.15L165.67 16.15Q166.18 16.46 166.99 16.46Q167.81 16.46 168.32 16.31Q168.84 16.15 169.07 15.77Q169.30 15.38 169.37 15.01Q169.44 14.64 169.46 13.92ZM176.50 0Q177.62 0 177.96 0.35Q178.30 0.70 178.30 1.81Q178.30 2.93 177.95 3.28Q177.60 3.62 176.48 3.62Q175.37 3.62 175.02 3.26Q174.67 2.90 174.67 1.80Q174.67 0.70 175.02 0.35Q175.37 0 176.50 0ZM178.03 5.74L178.03 18.94L174.91 18.94L174.91 5.74L178.03 5.74ZM188.93 12.74L188.93 12.74L188.93 11.50Q188.93 9.72 188.41 8.78Q187.90 7.85 186.26 7.85L186.26 7.85Q183.62 7.85 183.62 11.40L183.62 11.40L183.62 12.65Q183.62 16.46 186.26 16.46L186.26 16.46Q187.97 16.46 188.50 15.19L188.50 15.19Q188.93 14.18 188.93 12.74ZM192.05 12.02L192.05 12.02Q192.05 16.46 190.37 17.98L190.37 17.98Q188.95 19.27 186.26 19.27L186.26 19.27Q182.83 19.27 181.63 17.26L181.63 17.26Q180.50 15.41 180.50 12.02L180.50 12.02Q180.50 8.86 181.63 7.06L181.63 7.06Q182.88 5.04 186.18 5.04Q189.48 5.04 190.76 6.80Q192.05 8.57 192.05 12.02ZM205.18 9.74L205.18 18.94L202.06 18.94L202.06 10.18Q202.06 9 201.58 8.57Q201.10 8.14 200.23 8.14L200.23 8.14L197.42 9.31L197.42 18.94L194.30 18.94L194.30 5.23L196.63 5.23L197.35 6.86L201.19 5.09Q202.80 5.09 203.99 6.28Q205.18 7.46 205.18 9.74L205.18 9.74ZM217.73 5.14L217.73 18.94L215.64 18.94L214.68 17.28L211.34 19.08Q208.56 19.08 207.60 17.06L207.60 17.06Q207.12 16.08 206.94 14.94Q206.76 13.80 206.76 12.56Q206.76 11.33 206.78 10.74Q206.81 10.15 206.90 9.37Q207 8.59 207.18 8.06Q207.36 7.54 207.70 6.97Q208.03 6.41 208.51 6.07L208.51 6.07Q209.59 5.33 211.32 5.33L211.32 5.33L214.61 5.33L217.73 5.14ZM212.23 15.79L214.61 14.57L214.61 8.14L212.23 8.14Q210.91 8.14 210.40 9.14Q209.88 10.15 209.88 12.16Q209.88 14.16 210.37 14.98Q210.86 15.79 212.23 15.79L212.23 15.79ZM224.11 0.89L224.11 18.94L220.99 18.96L220.99 0.89L224.11 0.89Z" transform="translate(51, 3.22)"></path></svg>